<svg width="728" height="573" viewBox="0 0 728 573" fill="none" xmlns="http://www.w3.org/2000/svg">
<g opacity="0.2">
<path d="M0.750148 346.466C-0.489106 332.16 -4.82323 292.933 36.7763 282.474C59.2975 276.812 87.9994 278.221 102.728 298.288C117.457 318.355 123.985 338.016 106.779 353.611C92.0235 366.983 74.6733 377.178 44.5291 380.531C21.4486 383.099 2.60101 367.832 0.750148 346.466Z" fill="#F5F7F8"/>
<path d="M641.773 286.057C610.126 280.633 617.707 234.557 647.306 212.83C663.359 201.047 670.251 209.174 696.161 202.659C718.682 196.996 730.814 225.638 727.35 237.073C722.644 252.614 723.747 272.865 707.028 276.692C682.582 282.289 681.332 292.837 641.773 286.057Z" fill="#F5F7F8"/>
<path d="M155.023 478.286L193.248 448.251C308.273 370.735 384.226 320.427 513.733 283.157C591.229 260.854 568.965 349.82 551.282 365.271C533.598 380.721 508.799 395.178 482.105 415.061C390.756 483.103 331.163 514.989 225.374 562.012C186.905 579.112 163.93 572.532 142.215 561.794C113.261 547.476 120.62 505.318 155.023 478.286Z" fill="#F5F7F8"/>
<path d="M186.088 198.696L224.314 168.661C339.339 91.1448 415.292 40.8373 544.798 3.56677C622.294 -18.7358 600.031 70.2303 582.347 85.6808C564.664 101.131 539.865 115.588 513.171 135.471C421.822 203.513 362.229 235.399 256.439 282.422C217.97 299.522 194.996 292.942 173.28 282.204C144.327 267.886 151.685 225.728 186.088 198.696Z" fill="#F5F7F8"/>
</g>
</svg>
